<svg t="1580135173903" class="icon" viewBox="0 0 1024 1024" version="1.1" xmlns="http://www.w3.org/2000/svg" p-id="1982" xmlns:xlink="http://www.w3.org/1999/xlink" width="200" height="200"><defs><style type="text/css"></style></defs><path d="M832 160c-35.2 0-64 28.8-64 64s28.8 64 64 64 64-28.8 64-64-28.8-64-64-64" fill="#2c2c2c" p-id="1983"></path><path d="M320 480h384v-64H320z" fill="#2c2c2c" p-id="1984"></path><path d="M320 608h256v-64h-256z" fill="#2c2c2c" p-id="1985"></path><path d="M320 736h256v-64h-256z" fill="#2c2c2c" p-id="1986"></path><path d="M800 352v512H224V224h96v64h384V96H320v64H192c-19.2 0-32 12.8-32 32v704c0 19.2 12.8 32 32 32h640c19.2 0 32-12.8 32-32V352h-64zM384 160h256v64h-256V160z" fill="#2c2c2c" p-id="1987"></path></svg>